<?xml version="1.0" encoding="UTF-8" standalone="no"?>
<svg id="svg4159" xmlns:rdf="http://www.w3.org/1999/02/22-rdf-syntax-ns#" xmlns="http://www.w3.org/2000/svg" height="759.81" viewBox="0 0 522.62561 759.80591" width="522.63" version="1.1" xmlns:cc="http://creativecommons.org/ns#" xmlns:dc="http://purl.org/dc/elements/1.1/">
<g id="g4146" stroke-linejoin="round" transform="translate(44.895 -7.7786)">
<path id="path4138" d="m397.75 47.778c-10.746-0.15239-21.967 7.2386-112.59 70.752-14.917 10.455-29.433 20.512-32.26 22.352-55.67 36.232-97.89 68.099-105.89 79.924-8.0064 11.835-12.408 22.179-13.235 31.902-0.93787 11.019 2.7149 21.24 10.911 31.933 4.8948 6.3866 4.6492 9.1496-1.3517 15.142-10.182 10.168-10.953 8.4124 22.859 52.178 25.744 33.322 27.731 36.379 33.883 52.085 8.7065 22.226 9.9531 34.087 4.8071 45.776l-1.7654 4.6934c-15.934 1.1171-23.737 2.1579-35.526 3.7584-46.038 6.2503-55.245 3.9601-78.154-8.1719-20.897-11.067-27.899-11.042-27.355 0.0976 0.26515 5.4267 1.4216 6.5664 22.423 22.129 39.639 29.373 45.653 40.298 42.661 77.489-4.1857 52.02-31.97 84.158-89.524 103.56-33.418 11.264-40.868 15.023-42.251 29.099-0.25616 2.6066-0.30593 5.5673-0.27217 8.9947 0.63615 64.584 67.695 40.157 122.21-49.492 15.884-26.123 20.301-33.468 64.098-133.79 17.471-40.016 21.538-53.24 21.88-53.615 6.4432-0.26492 12.772-0.93359 17.917-1.489 19.436-2.0931 18.862-1.028 18.69-34.694-0.16292-31.745 1.6867-25.324-23.324-49.074-40.731-38.679-49.944-63.521-36.5-98.423 13.812-35.858 27.026-42.366 58.16-28.642 32.914 14.508 49.69 5.7205 54.39-28.493 3.3228-24.191 10.288-30.797 36.647-34.757 23.793-3.5746 30.307-9.5192 33.157-30.258 2.5842-18.803 2.5432-18.763 38.643-37.838 26.131-13.808 31.024-17.13 34.693-23.566 10.551-18.514-6.1744-36.909-35.864-39.445-0.73559-0.06281-1.4499-0.10764-2.1663-0.11779z" stroke="#006400" stroke-width="80" fill="#006400"/>
<g fill="none">
<path id="path4142" d="m397.75 47.778c-10.746-0.15239-21.967 7.2386-112.59 70.752-14.917 10.455-29.433 20.512-32.26 22.352-55.67 36.232-97.89 68.099-105.89 79.924-8.0064 11.835-12.408 22.179-13.235 31.902-0.93787 11.019 2.7149 21.24 10.911 31.933 4.8948 6.3866 4.6492 9.1496-1.3517 15.142-10.182 10.168-10.953 8.4124 22.859 52.178 25.744 33.322 27.731 36.379 33.883 52.085 8.7065 22.226 9.9531 34.087 4.8071 45.776l-1.7654 4.6934c-15.934 1.1171-23.737 2.1579-35.526 3.7584-46.038 6.2503-55.245 3.9601-78.154-8.1719-20.897-11.067-27.899-11.042-27.355 0.0976 0.26515 5.4267 1.4216 6.5664 22.423 22.129 39.639 29.373 45.653 40.298 42.661 77.489-4.1857 52.02-31.97 84.158-89.524 103.56-33.418 11.264-40.868 15.023-42.251 29.099-0.25616 2.6066-0.30593 5.5673-0.27217 8.9947 0.63615 64.584 67.695 40.157 122.21-49.492 15.884-26.123 20.301-33.468 64.098-133.79 17.471-40.016 21.538-53.24 21.88-53.615 6.4432-0.26492 12.772-0.93359 17.917-1.489 19.436-2.0931 18.862-1.028 18.69-34.694-0.16292-31.745 1.6867-25.324-23.324-49.074-40.731-38.679-49.944-63.521-36.5-98.423 13.812-35.858 27.026-42.366 58.16-28.642 32.914 14.508 49.69 5.7205 54.39-28.493 3.3228-24.191 10.288-30.797 36.647-34.757 23.793-3.5746 30.307-9.5192 33.157-30.258 2.5842-18.803 2.5432-18.763 38.643-37.838 26.131-13.808 31.024-17.13 34.693-23.566 10.551-18.514-6.1744-36.909-35.864-39.445-0.73559-0.06281-1.4499-0.10764-2.1663-0.11779z" stroke="#f00" stroke-width="26"/>
<path id="path4140" d="m397.75 47.778c-10.746-0.15239-21.967 7.2386-112.59 70.752-14.917 10.455-29.433 20.512-32.26 22.352-55.67 36.232-97.89 68.099-105.89 79.924-8.0064 11.835-12.408 22.179-13.235 31.902-0.93787 11.019 2.7149 21.24 10.911 31.933 4.8948 6.3866 4.6492 9.1496-1.3517 15.142-10.182 10.168-10.953 8.4124 22.859 52.178 25.744 33.322 27.731 36.379 33.883 52.085 8.7065 22.226 9.9531 34.087 4.8071 45.776l-1.7654 4.6934c-15.934 1.1171-23.737 2.1579-35.526 3.7584-46.038 6.2503-55.245 3.9601-78.154-8.1719-20.897-11.067-27.899-11.042-27.355 0.0976 0.26515 5.4267 1.4216 6.5664 22.423 22.129 39.639 29.373 45.653 40.298 42.661 77.489-4.1857 52.02-31.97 84.158-89.524 103.56-33.418 11.264-40.868 15.023-42.251 29.099-0.25616 2.6066-0.30593 5.5673-0.27217 8.9947 0.63615 64.584 67.695 40.157 122.21-49.492 15.884-26.123 20.301-33.468 64.098-133.79 17.471-40.016 21.538-53.24 21.88-53.615 6.4432-0.26492 12.772-0.93359 17.917-1.489 19.436-2.0931 18.862-1.028 18.69-34.694-0.16292-31.745 1.6867-25.324-23.324-49.074-40.731-38.679-49.944-63.521-36.5-98.423 13.812-35.858 27.026-42.366 58.16-28.642 32.914 14.508 49.69 5.7205 54.39-28.493 3.3228-24.191 10.288-30.797 36.647-34.757 23.793-3.5746 30.307-9.5192 33.157-30.258 2.5842-18.803 2.5432-18.763 38.643-37.838 26.131-13.808 31.024-17.13 34.693-23.566 10.551-18.514-6.1744-36.909-35.864-39.445-0.73559-0.06281-1.4499-0.10764-2.1663-0.11779z" stroke="#fff" stroke-dasharray="26, 26" stroke-width="26"/>
<path id="path4194" d="m397.75 47.778c-10.746-0.15239-21.967 7.2386-112.59 70.752-14.917 10.455-29.433 20.512-32.26 22.352-55.67 36.232-97.89 68.099-105.89 79.924-8.0064 11.835-12.408 22.179-13.235 31.902-0.93787 11.019 2.7149 21.24 10.911 31.933 4.8948 6.3866 4.6492 9.1496-1.3517 15.142-10.182 10.168-10.953 8.4124 22.859 52.178 25.744 33.322 27.731 36.379 33.883 52.085 8.7065 22.226 9.9531 34.087 4.8071 45.776l-1.7654 4.6934c-15.934 1.1171-23.737 2.1579-35.526 3.7584-46.038 6.2503-55.245 3.9601-78.154-8.1719-20.897-11.067-27.899-11.042-27.355 0.0976 0.26515 5.4267 1.4216 6.5664 22.423 22.129 39.639 29.373 45.653 40.298 42.661 77.489-4.1857 52.02-31.97 84.158-89.524 103.56-33.418 11.264-40.868 15.023-42.251 29.099-0.25616 2.6066-0.30593 5.5673-0.27217 8.9947 0.63615 64.584 67.695 40.157 122.21-49.492 15.884-26.123 20.301-33.468 64.098-133.79 17.471-40.016 21.538-53.24 21.88-53.615 6.4432-0.26492 12.772-0.93359 17.917-1.489 19.436-2.0931 18.862-1.028 18.69-34.694-0.16292-31.745 1.6867-25.324-23.324-49.074-40.731-38.679-49.944-63.521-36.5-98.423 13.812-35.858 27.026-42.366 58.16-28.642 32.914 14.508 49.69 5.7205 54.39-28.493 3.3228-24.191 10.288-30.797 36.647-34.757 23.793-3.5746 30.307-9.5192 33.157-30.258 2.5842-18.803 2.5432-18.763 38.643-37.838 26.131-13.808 31.024-17.13 34.693-23.566 10.551-18.514-6.1744-36.909-35.864-39.445-0.73559-0.06281-1.4499-0.10764-2.1663-0.11779z" stroke="#141414" stroke-width="20"/>
<path id="path4144" d="m397.75 47.778c-10.746-0.15239-21.967 7.2386-112.59 70.752-14.917 10.455-29.433 20.512-32.26 22.352-55.67 36.232-97.89 68.099-105.89 79.924-8.0064 11.835-12.408 22.179-13.235 31.902-0.93787 11.019 2.7149 21.24 10.911 31.933 4.8948 6.3866 4.6492 9.1496-1.3517 15.142-10.182 10.168-10.953 8.4124 22.859 52.178 25.744 33.322 27.731 36.379 33.883 52.085 8.7065 22.226 9.9531 34.087 4.8071 45.776l-1.7654 4.6934c-15.934 1.1171-23.737 2.1579-35.526 3.7584-46.038 6.2503-55.245 3.9601-78.154-8.1719-20.897-11.067-27.899-11.042-27.355 0.0976 0.26515 5.4267 1.4216 6.5664 22.423 22.129 39.639 29.373 45.653 40.298 42.661 77.489-4.1857 52.02-31.97 84.158-89.524 103.56-33.418 11.264-40.868 15.023-42.251 29.099-0.25616 2.6066-0.30593 5.5673-0.27217 8.9947 0.63615 64.584 67.695 40.157 122.21-49.492 15.884-26.123 20.301-33.468 64.098-133.79 17.471-40.016 21.538-53.24 21.88-53.615 6.4432-0.26492 12.772-0.93359 17.917-1.489 19.436-2.0931 18.862-1.028 18.69-34.694-0.16292-31.745 1.6867-25.324-23.324-49.074-40.731-38.679-49.944-63.521-36.5-98.423 13.812-35.858 27.026-42.366 58.16-28.642 32.914 14.508 49.69 5.7205 54.39-28.493 3.3228-24.191 10.288-30.797 36.647-34.757 23.793-3.5746 30.307-9.5192 33.157-30.258 2.5842-18.803 2.5432-18.763 38.643-37.838 26.131-13.808 31.024-17.13 34.693-23.566 10.551-18.514-6.1744-36.909-35.864-39.445-0.73559-0.06281-1.4499-0.10764-2.1663-0.11779z" stroke="#fff" stroke-dasharray="8, 2" stroke-width="2"/>
</g>
</g>
</svg>
