<svg xmlns="http://www.w3.org/2000/svg" width="1024" height="1024" viewBox="0 0 1024 1024" role="img" aria-labelledby="title description">
  <title id="title">RaceMate Telegram bot avatar</title>
  <desc id="description">Красная монограмма RaceMate на темном круглом фоне.</desc>
  <defs>
    <radialGradient id="avatar-bg" cx="50%" cy="43%" r="72%">
      <stop offset="0" stop-color="#241313" />
      <stop offset="0.48" stop-color="#121010" />
      <stop offset="1" stop-color="#080808" />
    </radialGradient>
    <mask id="rm-mask" maskUnits="userSpaceOnUse" x="0" y="0" width="96" height="56">
      <rect width="96" height="56" fill="#fff" />
      <path d="M39 36h8l-3 19Z" fill="#000" />
    </mask>
    <filter id="mark-shadow" x="-20%" y="-30%" width="140%" height="160%">
      <feDropShadow dx="0" dy="18" stdDeviation="20" flood-color="#000" flood-opacity="0.45" />
    </filter>
  </defs>

  <rect width="1024" height="1024" fill="#080808" />
  <circle cx="512" cy="512" r="496" fill="url(#avatar-bg)" />
  <circle cx="512" cy="512" r="469" fill="none" stroke="#fff" stroke-opacity="0.08" stroke-width="4" />
  <circle cx="512" cy="512" r="444" fill="none" stroke="#e10600" stroke-opacity="0.16" stroke-width="2" />

  <g transform="translate(160 307) scale(7.333333)" filter="url(#mark-shadow)">
    <g fill="#e10600" mask="url(#rm-mask)">
      <path d="M6 10 16 0h29c12 0 20 7 20 18 0 12-8 19-20 19h-7l12 15-7 4-14-19h-3c-5 0-8 2-11 6L5 56H0l16-23c3-4 7-6 13-6h16c6 0 10-3 10-8.5S51 10 45 10Z" />
      <path d="M44 56 86 0h10v56H86V17L54 56Z" />
    </g>
  </g>
</svg>
